HIERARCHY
ROOT pelvis
{
    OFFSET 0.0 93.43424987792969 0.0
    CHANNELS 6 Xposition Yposition Zposition Zrotation Yrotation Xrotation

    JOINT left_hip
    {
        OFFSET -5.487524032592773 -5.2325592041015625 -0.7631623148918152
        CHANNELS 3 Zrotation Yrotation Xrotation

        JOINT left_knee
        {
            OFFSET -7.749534606933594 -40.50933837890625 -0.42856889963150024
            CHANNELS 3 Zrotation Yrotation Xrotation

            JOINT left_ankle
            {
                OFFSET -0.9734487533569336 -42.30165100097656 -5.4050397872924805
                CHANNELS 3 Zrotation Yrotation Xrotation

                JOINT left_foot
                {
                    OFFSET -3.5274858474731445 -4.548106670379639 13.312971115112305
                    CHANNELS 3 Zrotation Yrotation Xrotation

                    End Site
                    {
                        OFFSET 0 0 0
                    }
                }
            }
        }
    }

    JOINT right_hip
    {
        OFFSET 6.5406389236450195 -4.806877136230469 -2.235987901687622
        CHANNELS 3 Zrotation Yrotation Xrotation

        JOINT right_knee
        {
            OFFSET 7.951041221618652 -40.66020202636719 -0.8243288993835449
            CHANNELS 3 Zrotation Yrotation Xrotation

            JOINT right_ankle
            {
                OFFSET -0.9453449249267578 -41.332054138183594 -4.012650489807129
                CHANNELS 3 Zrotation Yrotation Xrotation

                JOINT right_foot
                {
                    OFFSET 1.0298566818237305 -6.38070011138916 13.429121017456055
                    CHANNELS 3 Zrotation Yrotation Xrotation

                    End Site
                    {
                        OFFSET 0 0 0
                    }
                }
            }
        }
    }

    JOINT spine1
    {
        OFFSET -1.0306668281555176 17.51691436767578 -1.2606257200241089
        CHANNELS 3 Zrotation Yrotation Xrotation

        JOINT spine2
        {
            OFFSET 0.30286675691604614 12.460441589355469 1.1875237226486206
            CHANNELS 3 Zrotation Yrotation Xrotation

            JOINT spine3
            {
                OFFSET 0.1970667839050293 4.174102783203125 2.595491409301758
                CHANNELS 3 Zrotation Yrotation Xrotation

                JOINT left_collar
                {
                    OFFSET -7.550829887390137 8.930679321289062 -3.9546098709106445
                    CHANNELS 3 Zrotation Yrotation Xrotation

                    JOINT left_shoulder
                    {
                        OFFSET -13.23507022857666 -0.458831787109375 -1.053511619567871
                        CHANNELS 3 Zrotation Yrotation Xrotation

                        JOINT left_elbow
                        {
                            OFFSET -6.248392105102539 -21.833396911621094 1.6390458345413208
                            CHANNELS 3 Zrotation Yrotation Xrotation

                            JOINT left_wrist
                            {
                                OFFSET -11.462799072265625 -25.028945922851562 -2.4176197052001953
                                CHANNELS 3 Zrotation Yrotation Xrotation

                                End Site
                                {
                                    OFFSET 0 0 0
                                }
                            }
                        }
                    }
                }

                JOINT right_collar
                {
                    OFFSET 7.237208366394043 9.538742065429688 -4.213591575622559
                    CHANNELS 3 Zrotation Yrotation Xrotation

                    JOINT right_shoulder
                    {
                        OFFSET 12.239594459533691 0.6848602294921875 -1.7421607971191406
                        CHANNELS 3 Zrotation Yrotation Xrotation

                        JOINT right_elbow
                        {
                            OFFSET 7.026248931884766 -22.651840209960938 0.507472038269043
                            CHANNELS 3 Zrotation Yrotation Xrotation

                            JOINT right_wrist
                            {
                                OFFSET 13.156808853149414 -25.003158569335938 -1.2739484310150146
                                CHANNELS 3 Zrotation Yrotation Xrotation

                                End Site
                                {
                                    OFFSET 0 0 0
                                }
                            }
                        }
                    }
                }

                JOINT neck
                {
                    OFFSET -0.5677996277809143 20.526947021484375 -4.74938440322876
                    CHANNELS 3 Zrotation Yrotation Xrotation

                    JOINT head
                    {
                        OFFSET 0.5506619811058044 12.691131591796875 5.4586181640625
                        CHANNELS 3 Zrotation Yrotation Xrotation

                        End Site
                        {
                            OFFSET 0 0 0
                        }
                    }
                }
            }
        }
    }

}

MOTION
Frames: 11
Frame Time: 0.050000
-1.719040 93.624603 2.643660 0.000000 0.000000 -0.000000 0.495983 -0.425934 -4.876120 0.014105 -0.670645 9.690477 25.250138 -2.897627 -6.168404 0.000000 0.000000 -0.000000 0.377602 0.975044 -3.179018 -6.165699 -6.160151 3.868521 -23.507545 -10.877017 1.400848 0.000000 0.000000 -0.000000 6.887436 -8.336363 -13.645491 -6.387437 0.842998 9.735384 0.000000 0.000000 -0.000000 -3.838436 -8.729364 3.888351 40.811695 -12.959046 -65.154846 -3.663036 9.384682 -133.580246 0.000000 0.000000 -0.000000 5.810100 2.974750 6.905053 5.239670 16.563525 -55.769417 35.828807 26.962359 -137.455137 0.000000 0.000000 -0.000000 -21.867733 13.990710 1.807858 0.000000 0.000000 -0.000000
-1.736175 93.654358 2.670677 0.000000 0.000000 -0.000000 0.514154 -0.421025 -4.942595 0.049819 -0.641420 9.724479 25.037412 -2.841981 -6.135382 0.000000 0.000000 -0.000000 0.327780 0.930636 -3.203987 -6.145424 -6.124634 3.890625 -23.488815 -10.921776 1.503957 0.000000 0.000000 -0.000000 6.945800 -8.384663 -13.533749 -6.334240 0.780712 9.680925 0.000000 0.000000 -0.000000 -3.833043 -8.801735 3.879921 41.513672 -12.898554 -65.204636 -3.534107 10.176007 -133.675236 0.000000 0.000000 -0.000000 5.817152 3.090486 6.922085 4.603811 16.462433 -55.785520 35.376489 26.575357 -137.158168 0.000000 0.000000 -0.000000 -21.797450 13.928700 1.884437 0.000000 0.000000 -0.000000
-1.755221 93.675163 2.698574 0.000000 0.000000 -0.000000 0.542021 -0.404536 -4.995720 0.092332 -0.604286 9.777394 24.458516 -2.825666 -6.047472 0.000000 0.000000 -0.000000 0.259497 0.871997 -3.250249 -6.101338 -6.051652 3.898682 -23.538485 -10.981257 1.634108 0.000000 0.000000 -0.000000 7.018066 -8.454627 -13.455933 -6.309319 0.728923 9.633835 0.000000 0.000000 -0.000000 -3.851282 -8.902506 3.896518 41.932671 -12.921331 -65.236098 -3.570826 10.721655 -133.742668 0.000000 0.000000 -0.000000 5.850258 3.151286 6.965008 4.282521 16.418433 -55.837595 35.121746 26.429073 -136.989833 0.000000 0.000000 -0.000000 -21.541171 13.767048 1.874655 0.000000 0.000000 -0.000000
-1.777045 93.683418 2.730538 0.000000 0.000000 -0.000000 0.556211 -0.405657 -5.074214 0.132278 -0.569142 9.891707 23.730528 -2.854761 -5.920137 0.000000 0.000000 -0.000000 0.219625 0.841024 -3.295119 -6.091197 -6.021532 3.912106 -23.464381 -11.001155 1.725403 0.000000 0.000000 -0.000000 7.095797 -8.539609 -13.429346 -6.262300 0.655101 9.651779 0.000000 0.000000 -0.000000 -3.799215 -9.020309 3.835118 42.219147 -12.927511 -65.091488 -3.655199 11.157169 -133.824110 0.000000 0.000000 -0.000000 5.862793 3.225942 6.985251 3.971403 16.379741 -55.804121 35.002763 26.184480 -136.861072 0.000000 0.000000 -0.000000 -21.342514 13.639794 1.876033 0.000000 0.000000 -0.000000
-1.803104 93.677429 2.764364 0.000000 0.000000 -0.000000 0.541495 -0.431468 -5.139069 0.171691 -0.524324 9.984689 23.106795 -2.874817 -5.790052 0.000000 0.000000 -0.000000 0.190557 0.816057 -3.314482 -6.076224 -5.994529 3.912297 -23.445443 -10.993119 1.707446 0.000000 0.000000 -0.000000 7.166072 -8.630390 -13.485005 -6.218996 0.578953 9.768294 0.000000 0.000000 -0.000000 -3.710608 -9.040878 3.736848 42.181485 -12.892492 -64.902248 -3.842247 11.347942 -133.825231 0.000000 0.000000 -0.000000 5.860458 3.265346 6.985598 3.729159 16.323663 -55.733193 34.959707 25.927226 -136.749760 0.000000 0.000000 -0.000000 -21.100927 13.486606 1.870621 0.000000 0.000000 -0.000000
-1.835298 93.671875 2.799541 0.000000 0.000000 -0.000000 0.505559 -0.473051 -5.181482 0.213806 -0.467066 10.036429 22.622866 -2.856853 -5.660265 0.000000 0.000000 -0.000000 0.170866 0.802967 -3.348624 -6.058139 -5.964443 3.951735 -23.463925 -10.971793 1.648290 0.000000 0.000000 -0.000000 7.197369 -8.677219 -13.545686 -6.148686 0.499087 9.955552 0.000000 0.000000 -0.000000 -3.510434 -9.050175 3.516152 42.122367 -12.767462 -64.483661 -3.920434 11.450759 -133.887807 0.000000 0.000000 -0.000000 5.878477 3.254426 7.005575 3.485547 16.220469 -55.705175 34.889796 25.638032 -136.518880 0.000000 0.000000 -0.000000 -20.887306 13.343815 1.900606 0.000000 0.000000 -0.000000
-1.877120 93.660995 2.834632 0.000000 0.000000 -0.000000 0.465949 -0.515034 -5.207526 0.227585 -0.441485 10.072102 22.461645 -2.860416 -5.594786 0.000000 0.000000 -0.000000 0.152909 0.790330 -3.375812 -6.054412 -5.953284 3.996215 -23.361056 -10.923753 1.572908 0.000000 0.000000 -0.000000 7.251628 -8.746316 -13.581855 -6.087494 0.417943 10.087414 0.000000 0.000000 -0.000000 -3.300951 -9.043947 3.285782 42.129244 -12.581975 -64.017700 -3.916517 11.543527 -133.969864 0.000000 0.000000 -0.000000 5.925259 3.206612 7.055925 3.251312 16.090941 -55.743253 34.895830 25.254579 -136.228369 0.000000 0.000000 -0.000000 -20.779565 13.265444 1.946357 0.000000 0.000000 -0.000000
-1.929242 93.665672 2.873013 0.000000 0.000000 -0.000000 0.434333 -0.548259 -5.226919 0.215804 -0.448974 10.102065 22.455931 -2.878561 -5.557616 0.000000 0.000000 -0.000000 0.135446 0.780163 -3.413860 -6.060126 -5.952443 4.074612 -23.265282 -10.900959 1.542148 0.000000 0.000000 -0.000000 7.300895 -8.798493 -13.555311 -5.986945 0.328078 10.095266 0.000000 0.000000 -0.000000 -3.098216 -9.068767 3.061754 42.345971 -12.369886 -63.545109 -3.772651 11.732046 -134.102346 0.000000 0.000000 -0.000000 6.015518 3.197909 7.159513 2.876983 15.954935 -55.823677 34.827377 24.825793 -135.897492 0.000000 0.000000 -0.000000 -20.746977 13.222233 2.053537 0.000000 0.000000 -0.000000
-1.987417 93.669067 2.909780 0.000000 0.000000 -0.000000 0.421932 -0.561620 -5.236369 0.177398 -0.494062 10.112363 22.544353 -2.931577 -5.566135 0.000000 0.000000 -0.000000 0.116692 0.766842 -3.441415 -6.083454 -5.970838 4.116130 -23.330655 -10.931012 1.484623 0.000000 0.000000 -0.000000 7.383669 -8.889166 -13.528022 -5.892267 0.224859 10.091879 0.000000 0.000000 -0.000000 -2.916456 -9.090102 2.860945 42.513113 -12.159121 -63.080212 -3.603174 11.801655 -134.246559 0.000000 0.000000 -0.000000 6.127215 3.230060 7.291029 2.258150 15.766405 -55.877298 34.718048 24.188458 -135.577081 0.000000 0.000000 -0.000000 -20.665727 13.162731 2.090994 0.000000 0.000000 -0.000000
-2.051793 93.671768 2.941130 0.000000 0.000000 -0.000000 0.409854 -0.577083 -5.259081 0.132767 -0.549524 10.099335 22.699260 -2.953319 -5.575103 0.000000 0.000000 -0.000000 0.097702 0.753392 -3.469439 -6.120968 -6.003194 4.140663 -23.588807 -11.033314 1.445873 0.000000 0.000000 -0.000000 7.522571 -9.049475 -13.527774 -5.827843 0.111617 10.076665 0.000000 0.000000 -0.000000 -2.789949 -9.195910 2.717846 42.897481 -11.999471 -62.679490 -3.459464 12.094097 -134.397207 0.000000 0.000000 -0.000000 6.248313 3.237886 7.431497 1.521552 15.498371 -55.883668 34.622658 23.406027 -135.290092 0.000000 0.000000 -0.000000 -20.665342 13.162314 2.091817 0.000000 0.000000 -0.000000
-2.121706 93.667511 2.969303 0.000000 0.000000 -0.000000 0.390423 -0.598806 -5.278359 0.086219 -0.604118 10.107172 22.794600 -2.991956 -5.561558 0.000000 0.000000 -0.000000 0.100956 0.766904 -3.526181 -6.221073 -6.096746 4.141096 -23.962200 -11.227738 1.499142 0.000000 0.000000 -0.000000 7.672436 -9.223415 -13.532760 -5.804236 0.018516 10.051817 0.000000 0.000000 -0.000000 -2.704383 -9.307655 2.619544 43.360305 -11.847978 -62.354879 -3.291899 12.446040 -134.615651 0.000000 0.000000 -0.000000 6.344495 3.250625 7.543566 0.310347 15.057815 -55.859275 34.298065 22.199666 -134.972751 0.000000 0.000000 -0.000000 -20.744935 13.212769 2.092586 0.000000 0.000000 -0.000000
